<mxfile host="app.diagrams.net" modified="2021-10-29T03:33:23.252Z" agent="5.0 (Macintosh; Intel Mac OS X 10_15_7) AppleWebKit/537.36 (KHTML, like Gecko) Chrome/94.0.4606.81 Safari/537.36" etag="HwPNGSg5xE6gxSgTBgjO" version="15.6.2" type="github">
  <diagram id="xiMyE7rtSsUQ-XyKH3nf" name="Page-1">
    <mxGraphModel dx="946" dy="614" grid="1" gridSize="10" guides="1" tooltips="1" connect="1" arrows="1" fold="1" page="1" pageScale="1" pageWidth="827" pageHeight="1169" math="0" shadow="0">
      <root>
        <mxCell id="0" />
        <mxCell id="1" parent="0" />
        <mxCell id="wYRO3z-KQ-4iAXOzVOaZ-1" value="Happy" style="shape=umlActor;verticalLabelPosition=bottom;verticalAlign=top;html=1;outlineConnect=0;" vertex="1" parent="1">
          <mxGeometry x="250" y="150" width="30" height="60" as="geometry" />
        </mxCell>
        <mxCell id="wYRO3z-KQ-4iAXOzVOaZ-4" value="终于找到你，那个好用的画图工具" style="text;html=1;strokeColor=none;fillColor=none;align=center;verticalAlign=middle;whiteSpace=wrap;rounded=0;" vertex="1" parent="1">
          <mxGeometry x="220" y="100" width="110" height="30" as="geometry" />
        </mxCell>
      </root>
    </mxGraphModel>
  </diagram>
</mxfile>
